<?xml version="1.0" encoding="UTF-8" standalone="no"?>
<!-- Created with Inkscape (http://www.inkscape.org/) -->

<svg
   width="227.34599"
   height="62"
   viewBox="0 0 60.152339 16.404164"
   version="1.1"
   id="svg1"
   inkscape:version="1.3.2 (091e20ef0f, 2023-11-25)"
   sodipodi:docname="logo-texto.svg"
   xmlns:inkscape="http://www.inkscape.org/namespaces/inkscape"
   xmlns:sodipodi="http://sodipodi.sourceforge.net/DTD/sodipodi-0.dtd"
   xmlns="http://www.w3.org/2000/svg"
   xmlns:svg="http://www.w3.org/2000/svg">
  <sodipodi:namedview
     id="namedview1"
     pagecolor="#ffffff"
     bordercolor="#000000"
     borderopacity="0.25"
     inkscape:showpageshadow="2"
     inkscape:pageopacity="0.0"
     inkscape:pagecheckerboard="0"
     inkscape:deskcolor="#d1d1d1"
     inkscape:document-units="mm"
     inkscape:zoom="1.7781425"
     inkscape:cx="136.37827"
     inkscape:cy="75.078347"
     inkscape:window-width="1366"
     inkscape:window-height="696"
     inkscape:window-x="0"
     inkscape:window-y="0"
     inkscape:window-maximized="1"
     inkscape:current-layer="layer1" />
  <defs
     id="defs1" />
  <g
     inkscape:label="Layer 1"
     inkscape:groupmode="layer"
     id="layer1">
    <text
       xml:space="preserve"
       style="font-size:86.3579px;font-family:Chilanka;-inkscape-font-specification:'Chilanka, Normal';fill:#000000;stroke-width:0.264583"
       x="29.836861"
       y="144.91476"
       id="text1"><tspan
         sodipodi:role="line"
         id="tspan1"
         style="stroke-width:0.264583"
         x="29.836861"
         y="144.91476" /></text>
    <text
       xml:space="preserve"
       style="font-size:12.7px;font-family:Chilanka;-inkscape-font-specification:'Chilanka, Normal';fill:#000000;stroke-width:0.264583"
       x="28.48987"
       y="140.46332"
       id="text2"><tspan
         sodipodi:role="line"
         id="tspan2"
         style="font-size:12.7px;stroke-width:0.264583"
         x="28.48987"
         y="140.46332" /></text>
    <g
       id="g4"
       transform="matrix(1.3826065,0,0,1.3826065,0.26458859,-7.3040241)">
      <path
         d="m 0,12.40634 v -0.09562 h 0.12430184 q 0.78405774,0 0.78405774,-0.688441 V 6.3251113 q 0,-0.6501943 -0.78405774,-0.6501943 H 0 V 5.5793002 H 2.7824488 V 5.674917 H 2.658147 q -0.7840578,0 -0.7840578,0.688441 v 5.947365 H 3.643 q 0.506769,0 0.8031811,-0.143425 0.3059738,-0.152987 0.449399,-0.516331 0.1434252,-0.363344 0.1816719,-0.984853 l 0.019123,-0.315536 h 0.095617 l -0.066932,2.055762 z m 9.1409581,0.09562 q -1.0135381,0 -1.6828556,-0.439837 Q 6.7887849,11.622282 6.4541261,10.828662 6.129029,10.035043 6.129029,8.9736966 q 0,-1.0613465 0.3250971,-1.8454042 Q 6.7887849,6.3442346 7.4581025,5.913959 8.1369817,5.4741218 9.1505198,5.4741218 q 0.9657292,0 1.6254852,0.4398372 0.669318,0.4302756 1.013538,1.2238951 0.353783,0.7840577 0.353783,1.8454042 0,1.0613467 -0.353783,1.8549657 -0.34422,0.784058 -1.013538,1.223895 -0.669317,0.439837 -1.6350469,0.439837 z m 0,-0.09562 q 1.0230999,0 1.4820599,-0.812743 0.458961,-0.812743 0.458961,-2.6103387 0,-1.7975958 -0.458961,-2.600777 -0.45896,-0.8127427 -1.4724982,-0.8127427 -1.0230998,0 -1.4916221,0.8127427 -0.4685223,0.8031812 -0.4685223,2.600777 0,1.7975957 0.4589606,2.6103387 0.4685224,0.812743 1.4916221,0.812743 z m 3.9107329,0 v -0.09562 h 0.124302 q 0.784058,0 0.784058,-0.688441 V 6.3251113 q 0,-0.6501943 -0.784058,-0.6501943 h -0.124302 v -0.095617 h 2.572092 q 1.243018,0 1.845404,0.4685224 0.611948,0.4589606 0.611948,1.3195118 0,0.5545774 -0.229481,0.9179212 -0.219918,0.3537822 -0.5737,0.5545775 -0.344221,0.2007952 -0.717126,0.3059737 l 1.348196,2.1035692 q 0.392029,0.611948 0.62151,0.841428 0.22948,0.219919 0.45896,0.219919 h 0.02868 v 0.09562 h -0.133863 q -0.449399,0 -0.745811,-0.02868 -0.286851,-0.03825 -0.478084,-0.124302 -0.191234,-0.08605 -0.344221,-0.248604 -0.143425,-0.17211 -0.315535,-0.439837 L 15.528166,9.2223003 H 14.92578 v 2.3999817 q 0,0.688441 0.784058,0.688441 h 0.124302 v 0.09562 z m 2.543407,-3.2796565 q 0.793619,0 1.128278,-0.3824672 0.334659,-0.3920289 0.334659,-1.3099502 0,-0.9466063 -0.344221,-1.3481968 Q 16.369594,5.674917 15.575975,5.674917 H 14.92578 v 3.4517665 z m 3.729056,3.2796565 v -0.09562 h 0.124302 q 0.784057,0 0.784057,-0.688441 V 6.3251113 q 0,-0.6501943 -0.784057,-0.6501943 h -0.124302 v -0.095617 h 4.809525 l 0.05737,1.673294 h -0.09562 L 24.076309,6.9370588 Q 24.038062,6.2199328 23.74165,5.9522058 23.4548,5.674917 22.728112,5.674917 h -1.529869 v 3.107546 h 2.399982 v 0.095617 h -2.399982 v 3.4326432 h 1.768911 q 0.516331,0 0.822304,-0.11474 0.305974,-0.11474 0.439838,-0.392029 0.143425,-0.277289 0.17211,-0.755373 l 0.01912,-0.315535 h 0.09562 l -0.06693,1.673294 z m 5.956919,0 v -0.09562 h 0.372905 q 0.784058,0 0.784058,-0.688441 V 6.3251113 q 0,-0.6501943 -0.784058,-0.6501943 h -0.372905 v -0.095617 h 1.941021 l 2.438228,5.7561318 2.113131,-5.7561318 h 1.749788 v 0.095617 h -0.124302 q -0.784058,0 -0.784058,0.688441 v 5.258924 q 0,0.688441 0.784058,0.688441 h 0.124302 v 0.09562 h -2.543407 v -0.09562 h 0.02868 q 0.315535,0 0.497207,-0.17211 0.191234,-0.172111 0.191234,-0.516331 V 6.0765076 L 29.373472,12.40634 H 29.143991 L 26.533653,6.2008094 v 5.4214726 q 0,0.688441 0.784057,0.688441 h 0.172111 v 0.09562 z"
         id="text3"
         style="font-size:9.56168px;font-family:'Noto Serif Display';-inkscape-font-specification:'Noto Serif Display, Normal';stroke-width:0.199201"
         aria-label="LOREM" />
      <path
         d="m 0.8306718,16.95613 q -0.39160242,0 -0.6131149,-0.154267 Q 0,16.643639 0,16.41026 q 0,-0.27689 0.28480176,-0.27689 0.003956,0.387646 0.14240088,0.585425 0.14240088,0.197779 0.43115822,0.197779 0.25315714,0 0.40742474,-0.146356 0.1582232,-0.150312 0.1582232,-0.439069 0,-0.178001 -0.067245,-0.288758 Q 1.2934747,15.931635 1.1471182,15.844612 1.0047173,15.753634 0.7713381,15.646833 0.64871512,15.5875 0.51818098,15.520255 0.39160242,15.449054 0.28084618,15.35412 0.17404552,15.255231 0.10680066,15.116786 0.04351138,14.974385 0.04351138,14.780561 q 0,-0.356002 0.22546806,-0.541914 0.22942364,-0.185912 0.60915932,-0.185912 0.23337924,0 0.40346914,0.06329 0.1740455,0.06329 0.2689795,0.166134 0.09889,0.102845 0.09889,0.225468 0,0.114712 -0.087023,0.181957 -0.087023,0.06329 -0.2254681,0.06329 0,-0.328313 -0.1068006,-0.494447 -0.1068007,-0.166135 -0.35600222,-0.166135 -0.22942364,0 -0.36786894,0.138446 -0.13448972,0.138445 -0.13448972,0.407424 0,0.193824 0.0712004,0.312491 0.0712004,0.118668 0.21360132,0.20569 0.14635646,0.08307 0.36391332,0.185913 0.197779,0.09098 0.3639134,0.189867 0.1700899,0.09889 0.272935,0.249202 0.1028451,0.150312 0.1028451,0.395558 0,0.359958 -0.245246,0.569604 -0.2412903,0.209645 -0.6843153,0.209645 z m 2.2863278,0 q -0.443025,0 -0.6922265,-0.284801 -0.245246,-0.284802 -0.245246,-0.799028 0,-0.553781 0.2294237,-0.834627 0.2294236,-0.280846 0.6487151,-0.280846 0.3836912,0 0.6012481,0.237335 0.2215125,0.237334 0.2215125,0.708048 v 0.09493 H 2.5632184 q 0.00396,0.605204 0.1305341,0.862317 0.1305342,0.257112 0.4351138,0.257112 0.2215125,0 0.3757801,-0.122623 0.1542676,-0.122622 0.1938234,-0.363913 0.047467,0.0079 0.071201,0.04747 0.023734,0.03956 0.023734,0.08307 0,0.07911 -0.075156,0.174046 -0.075156,0.09098 -0.225468,0.158223 -0.1463565,0.06329 -0.3757801,0.06329 z m 0.3639133,-1.19854 q 0,-0.518181 -0.098889,-0.739694 -0.098889,-0.221512 -0.3322687,-0.221512 -0.2412904,0 -0.3560022,0.221512 -0.1107562,0.221513 -0.1305341,0.739694 z m 0.6882707,1.158984 v -0.03956 h 0.051423 q 0.1740455,0 0.2492016,-0.0712 0.075156,-0.0712 0.075156,-0.233379 v -1.427964 q 0,-0.166135 -0.075156,-0.237335 -0.075156,-0.0712 -0.2492016,-0.0712 h -0.011867 v -0.03956 h 0.7040932 v 0.395558 h 0.00791 q 0.027689,-0.102845 0.083067,-0.201735 0.055378,-0.09889 0.1661343,-0.166134 0.1147118,-0.06724 0.3045797,-0.06724 0.197779,0 0.3006241,0.07911 0.1068006,0.07516 0.1068006,0.213602 0,0.118667 -0.087023,0.197779 -0.083067,0.07911 -0.2808462,0.07911 0,-0.245246 -0.083067,-0.336224 -0.083067,-0.09493 -0.1859123,-0.09493 -0.1147118,0 -0.1819566,0.08307 -0.067245,0.07911 -0.098889,0.209646 -0.031645,0.126579 -0.039556,0.265024 -0.00791,0.13449 -0.00791,0.249201 v 0.85045 q 0,0.174046 0.075156,0.249202 0.075156,0.07516 0.2492016,0.07516 h 0.051423 v 0.03956 z m 2.037126,-1.870989 q -0.039556,-0.118667 -0.094934,-0.162179 -0.055378,-0.04747 -0.1542676,-0.04747 v -0.03956 h 0.988895 v 0.03956 h -0.094934 q -0.1265785,0 -0.1898678,0.0356 -0.059334,0.03164 -0.059334,0.114711 0,0.06329 0.043511,0.185913 l 0.3124908,0.874183 q 0.051423,0.142401 0.087023,0.253157 0.039556,0.106801 0.075156,0.217557 0.039556,0.106801 0.087023,0.257113 0.0356,-0.114712 0.063289,-0.201735 0.031645,-0.08702 0.079112,-0.221512 l 0.3995136,-1.15503 q 0.019778,-0.06329 0.031645,-0.110756 0.011867,-0.04747 0.011867,-0.08702 0,-0.09098 -0.0712,-0.126578 -0.067245,-0.0356 -0.2175569,-0.0356 H 7.3732057 v -0.03956 h 0.8464941 v 0.03956 H 8.1089436 q -0.1107563,0 -0.1780011,0.06724 -0.063289,0.06724 -0.122623,0.241291 L 7.1991602,16.916574 H 6.8866694 Z m 2.6581517,-0.628937 q -0.075156,0 -0.1265786,-0.04747 -0.047467,-0.05142 -0.047467,-0.174046 0,-0.126578 0.047467,-0.174045 0.051423,-0.04747 0.1265786,-0.04747 0.0712,0 0.1226229,0.04747 0.051423,0.04747 0.051423,0.174045 0,0.122623 -0.051423,0.174046 -0.051422,0.04747 -0.1226229,0.04747 z m -0.5419145,2.499926 v -0.03956 h 0.051423 q 0.1740455,0 0.2492015,-0.0712 0.075156,-0.0712 0.075156,-0.233379 v -1.427964 q 0,-0.166135 -0.075156,-0.237335 -0.075156,-0.0712 -0.2492015,-0.0712 h -0.011867 v -0.03956 h 0.7080488 v 1.756277 q 0,0.174046 0.075156,0.249202 0.075156,0.07516 0.2492016,0.07516 h 0.051423 v 0.03956 z m 2.3021462,0.03956 q -0.268979,0 -0.47467,-0.1068 -0.2056897,-0.110757 -0.3204015,-0.356003 -0.1147119,-0.245246 -0.1147119,-0.644759 0,-0.407425 0.1147119,-0.64476 0.1186674,-0.24129 0.3164465,-0.344135 0.197779,-0.102845 0.44698,-0.102845 0.166135,0 0.324358,0.04351 0.162179,0.04351 0.265024,0.13449 0.102845,0.08702 0.102845,0.233379 0,0.130534 -0.09098,0.185912 -0.09098,0.05538 -0.261069,0.05538 0,-0.316446 -0.0712,-0.462802 -0.06724,-0.150312 -0.276891,-0.150312 -0.142401,0 -0.253157,0.09098 -0.110756,0.08702 -0.174045,0.316446 -0.05933,0.225468 -0.05933,0.648715 0,0.387647 0.05933,0.624982 0.05933,0.233379 0.189867,0.336224 0.130535,0.102845 0.336225,0.102845 0.197779,0 0.332268,-0.102845 0.138446,-0.1068 0.205691,-0.391602 0.08307,0.01978 0.08307,0.126579 0,0.09493 -0.07516,0.189867 -0.07516,0.09098 -0.225468,0.154268 -0.150312,0.06329 -0.379736,0.06329 z m 1.4517,-2.539482 q -0.07516,0 -0.126578,-0.04747 -0.04747,-0.05142 -0.04747,-0.174046 0,-0.126578 0.04747,-0.174045 0.05142,-0.04747 0.126578,-0.04747 0.0712,0 0.122623,0.04747 0.05142,0.04747 0.05142,0.174045 0,0.122623 -0.05142,0.174046 -0.05142,0.04747 -0.122623,0.04747 z m -0.541914,2.499926 v -0.03956 h 0.05142 q 0.174045,0 0.249201,-0.0712 0.07516,-0.0712 0.07516,-0.233379 v -1.427964 q 0,-0.166135 -0.07516,-0.237335 -0.07516,-0.0712 -0.249201,-0.0712 h -0.01187 v -0.03956 h 0.708049 v 1.756277 q 0,0.174046 0.07516,0.249202 0.07516,0.07516 0.249201,0.07516 h 0.05142 v 0.03956 z m 2.310057,0.03956 q -0.427202,0 -0.672448,-0.272935 -0.245246,-0.272935 -0.245246,-0.830672 0,-0.553781 0.233379,-0.82276 0.237335,-0.272935 0.696182,-0.272935 0.427203,0 0.672449,0.272935 0.245246,0.268979 0.245246,0.82276 0,0.557737 -0.237335,0.830672 -0.233379,0.272935 -0.692227,0.272935 z m 0.0079,-0.03956 q 0.292712,0 0.415335,-0.245245 0.122623,-0.245246 0.122623,-0.818806 0,-0.569603 -0.126578,-0.810893 -0.122623,-0.245246 -0.415336,-0.245246 -0.288757,0 -0.415336,0.245246 -0.122623,0.24129 -0.122623,0.810893 0,0.57356 0.122623,0.818806 0.126579,0.245245 0.419292,0.245245 z m 1.9857,0.03956 q -0.296669,0 -0.482581,-0.1068 -0.185912,-0.106801 -0.185912,-0.312491 0,-0.106801 0.04351,-0.166135 0.04351,-0.05933 0.09889,-0.08307 0.05933,-0.02373 0.1068,-0.02373 0,0.320402 0.09098,0.486536 0.09493,0.166134 0.336224,0.166134 0.209646,0 0.332269,-0.1068 0.122623,-0.110756 0.122623,-0.324358 0,-0.138445 -0.04747,-0.217557 -0.04747,-0.08307 -0.158224,-0.146356 -0.1068,-0.06329 -0.300624,-0.146357 -0.225468,-0.09889 -0.356002,-0.189867 -0.130534,-0.09493 -0.185912,-0.205691 -0.05538,-0.110756 -0.05538,-0.261068 0,-0.268979 0.189868,-0.41138 0.189867,-0.146357 0.526092,-0.146357 0.284801,0 0.443025,0.106801 0.162178,0.106801 0.162178,0.257113 0,0.1068 -0.07516,0.174045 -0.0712,0.06329 -0.209645,0.06329 0,-0.30458 -0.08307,-0.431159 -0.08307,-0.130534 -0.257113,-0.130534 -0.403469,0 -0.403469,0.379736 0,0.138445 0.05538,0.221512 0.05538,0.08307 0.17009,0.142401 0.118667,0.05933 0.292713,0.13449 0.225468,0.09098 0.356002,0.185912 0.130534,0.09098 0.181957,0.20569 0.05538,0.110757 0.05538,0.265024 0,0.308535 -0.205691,0.466759 -0.20569,0.154267 -0.557736,0.154267 z m 1.977792,-0.03956 v -0.03956 h 0.05142 q 0.324358,0 0.324358,-0.284802 v -2.191391 q 0,-0.26898 -0.324358,-0.26898 h -0.05142 v -0.03956 h 1.151073 v 0.03956 h -0.05142 q -0.324358,0 -0.324358,0.284802 v 2.175569 q 0,0.284802 0.324358,0.284802 h 0.05142 v 0.03956 z m 1.412144,0 v -0.03956 h 0.03165 q 0.185912,0 0.253157,-0.07911 0.0712,-0.07911 0.0712,-0.284802 v -1.321163 q 0,-0.201735 -0.06724,-0.276891 -0.06724,-0.07911 -0.249201,-0.07911 h -0.01978 v -0.03956 h 0.704093 v 0.371824 h 0.0079 q 0.05538,-0.185912 0.154268,-0.272935 0.09889,-0.08702 0.213601,-0.110756 0.118668,-0.02769 0.217557,-0.02769 0.352047,0 0.522137,0.185912 0.174045,0.181957 0.174045,0.589381 v 0.980984 q 0,0.20569 0.06329,0.284802 0.06329,0.07911 0.233379,0.07911 h 0.01978 v 0.03956 H 20.86965 v -1.518942 q 0,-0.257113 -0.09493,-0.419292 -0.09493,-0.162178 -0.328313,-0.162178 -0.185913,0 -0.292713,0.09889 -0.106801,0.09889 -0.154268,0.257113 -0.04351,0.154267 -0.04351,0.324357 v 1.016584 q 0,0.20569 0.06724,0.284802 0.06724,0.07911 0.249201,0.07911 h 0.01978 v 0.03956 z m 2.551352,0 v -0.03956 h 0.03164 q 0.174046,0 0.249202,-0.0712 0.07516,-0.0712 0.07516,-0.233379 v -1.427964 q 0,-0.166135 -0.07516,-0.237335 -0.07516,-0.0712 -0.249202,-0.0712 h -0.01187 v -0.03956 h 0.704093 v 0.37578 h 0.0079 q 0.05538,-0.174046 0.146356,-0.261069 0.09493,-0.09098 0.209646,-0.122623 0.114712,-0.03164 0.233379,-0.03164 0.209646,0 0.37578,0.102845 0.17009,0.09889 0.249202,0.379736 h 0.0079 q 0.05142,-0.213602 0.142401,-0.316447 0.09493,-0.102845 0.209646,-0.13449 0.114712,-0.03164 0.225468,-0.03164 0.668493,0 0.668493,0.78716 v 1.008673 q 0,0.174046 0.07516,0.249202 0.07516,0.07516 0.249201,0.07516 h 0.01187 v 0.03956 h -0.708049 v -1.451697 q 0,-0.328314 -0.09098,-0.478626 -0.09098,-0.150312 -0.292713,-0.150312 -0.229424,0 -0.352047,0.17009 -0.118667,0.17009 -0.118667,0.486537 v 1.060095 q 0,0.174046 0.07516,0.249202 0.07516,0.07516 0.249202,0.07516 h 0.01187 v 0.03956 h -0.708048 v -1.451697 q 0,-0.328314 -0.09493,-0.478626 -0.09098,-0.150312 -0.300624,-0.150312 -0.478626,0 -0.478626,0.712005 v 1.004717 q 0,0.174046 0.07516,0.249202 0.07516,0.07516 0.249202,0.07516 h 0.01187 v 0.03956 z m 4.762517,0.03956 q -0.427203,0 -0.672449,-0.272935 -0.245246,-0.272935 -0.245246,-0.830672 0,-0.553781 0.233379,-0.82276 0.237335,-0.272935 0.696182,-0.272935 0.427203,0 0.672449,0.272935 0.245246,0.268979 0.245246,0.82276 0,0.557737 -0.237335,0.830672 -0.233379,0.272935 -0.692226,0.272935 z m 0.0079,-0.03956 q 0.292713,0 0.415336,-0.245245 0.122623,-0.245246 0.122623,-0.818806 0,-0.569603 -0.126579,-0.810893 -0.122623,-0.245246 -0.415336,-0.245246 -0.288757,0 -0.415336,0.245246 -0.122623,0.24129 -0.122623,0.810893 0,0.57356 0.122623,0.818806 0.126579,0.245245 0.419292,0.245245 z m 2.555303,0.03956 q -0.257113,0 -0.407425,-0.146356 -0.150312,-0.146357 -0.20569,-0.450936 h -0.0079 v 0.557736 h -0.723872 v -0.03956 h 0.03164 q 0.174046,0 0.249202,-0.0712 0.07516,-0.0712 0.07516,-0.233379 v -2.314014 q 0,-0.166135 -0.07516,-0.237335 -0.07516,-0.0712 -0.249202,-0.0712 h -0.01187 v -0.03956 h 0.708049 v 0.727826 q 0,0.102845 0,0.300624 0,0.193824 -0.0079,0.407425 h 0.0079 q 0.05538,-0.300624 0.20569,-0.443025 0.154268,-0.146356 0.419292,-0.146356 0.78716,0 0.78716,1.095695 0,0.541915 -0.20569,0.822761 -0.201735,0.280846 -0.589381,0.280846 z m -0.06725,-0.05933 q 0.257112,0 0.367869,-0.241291 0.110756,-0.24129 0.110756,-0.806938 0,-0.557737 -0.110756,-0.795072 -0.110757,-0.237334 -0.371825,-0.237334 -0.288757,0 -0.419291,0.261068 -0.126579,0.261068 -0.126579,0.775293 0,0.530048 0.13449,0.787161 0.138445,0.257113 0.415336,0.257113 z m 1.712768,-2.480149 q -0.07516,0 -0.126579,-0.04747 -0.04747,-0.05142 -0.04747,-0.174046 0,-0.126578 0.04747,-0.174045 0.05142,-0.04747 0.126579,-0.04747 0.0712,0 0.122623,0.04747 0.05142,0.04747 0.05142,0.174045 0,0.122623 -0.05142,0.174046 -0.05142,0.04747 -0.122623,0.04747 z m -0.541915,2.499926 v -0.03956 h 0.05142 q 0.174045,0 0.249201,-0.0712 0.07516,-0.0712 0.07516,-0.233379 v -1.427964 q 0,-0.166135 -0.07516,-0.237335 -0.07516,-0.0712 -0.249201,-0.0712 h -0.01187 v -0.03956 h 0.708049 v 1.756277 q 0,0.174046 0.07516,0.249202 0.07516,0.07516 0.249202,0.07516 h 0.05142 v 0.03956 z m 1.226228,0 v -0.03956 h 0.05142 q 0.174046,0 0.249202,-0.0712 0.07516,-0.0712 0.07516,-0.233379 v -2.314014 q 0,-0.166135 -0.07516,-0.237335 -0.07516,-0.0712 -0.249202,-0.0712 h -0.05142 v -0.03956 h 0.747605 v 2.642327 q 0,0.174046 0.07516,0.249202 0.07516,0.07516 0.249201,0.07516 h 0.05142 v 0.03956 z M 33.2427,14.416648 q -0.07516,0 -0.126579,-0.04747 -0.04747,-0.05142 -0.04747,-0.174046 0,-0.126578 0.04747,-0.174045 0.05142,-0.04747 0.126579,-0.04747 0.0712,0 0.122623,0.04747 0.05142,0.04747 0.05142,0.174045 0,0.122623 -0.05142,0.174046 -0.05142,0.04747 -0.122623,0.04747 z m -0.541915,2.499926 v -0.03956 h 0.05142 q 0.174046,0 0.249202,-0.0712 0.07516,-0.0712 0.07516,-0.233379 v -1.427964 q 0,-0.166135 -0.07516,-0.237335 -0.07516,-0.0712 -0.249202,-0.0712 h -0.01187 v -0.03956 h 0.708049 v 1.756277 q 0,0.174046 0.07516,0.249202 0.07516,0.07516 0.249202,0.07516 h 0.05142 v 0.03956 z m 2.025257,0.03956 q -0.300624,0 -0.478625,-0.154267 -0.174046,-0.158224 -0.174046,-0.431159 0,-0.304579 0.221513,-0.454891 0.225468,-0.150312 0.68036,-0.166135 l 0.328313,-0.01187 v -0.296669 q 0,-0.221512 -0.02373,-0.363913 -0.02373,-0.142401 -0.102845,-0.209646 -0.07911,-0.0712 -0.24129,-0.0712 -0.229424,0 -0.296669,0.1424 -0.06329,0.142401 -0.06329,0.446981 -0.166134,0 -0.253157,-0.05538 -0.08307,-0.05538 -0.08307,-0.181957 0,-0.142401 0.09493,-0.225468 0.09889,-0.08702 0.261068,-0.126578 0.162179,-0.03956 0.356002,-0.03956 0.363913,0 0.541915,0.154267 0.181956,0.154268 0.181956,0.530048 v 1.182719 q 0,0.1424 0.05538,0.197779 0.05538,0.05538 0.189868,0.05538 h 0.01187 v 0.03956 h -0.597293 v -0.415335 h -0.0079 q -0.06329,0.237334 -0.225468,0.348091 -0.158223,0.1068 -0.37578,0.1068 z m 0.07911,-0.05538 q 0.146356,0 0.257112,-0.07516 0.114712,-0.07516 0.178001,-0.201734 0.06329,-0.126579 0.06329,-0.272935 V 15.781323 L 35.0504,15.79319 q -0.336225,0.01582 -0.466759,0.154267 -0.126578,0.138446 -0.126578,0.466759 0,0.486536 0.348091,0.486536 z m 1.388406,0.01582 v -0.03956 h 0.05142 q 0.174046,0 0.249202,-0.0712 0.07516,-0.0712 0.07516,-0.233379 v -1.427964 q 0,-0.166135 -0.07516,-0.237335 -0.07516,-0.0712 -0.249202,-0.0712 h -0.01187 v -0.03956 h 0.704093 v 0.395558 h 0.0079 q 0.02769,-0.102845 0.08307,-0.201735 0.05538,-0.09889 0.166134,-0.166134 0.114712,-0.06724 0.30458,-0.06724 0.197779,0 0.300624,0.07911 0.106801,0.07516 0.106801,0.213602 0,0.118667 -0.08702,0.197779 -0.08307,0.07911 -0.280846,0.07911 0,-0.245246 -0.08307,-0.336224 -0.08307,-0.09493 -0.185912,-0.09493 -0.114712,0 -0.181956,0.08307 -0.06724,0.07911 -0.09889,0.209646 -0.03165,0.126579 -0.03956,0.265024 -0.0079,0.13449 -0.0079,0.249201 v 0.85045 q 0,0.174046 0.07516,0.249202 0.07516,0.07516 0.249202,0.07516 h 0.05142 v 0.03956 z m 2.404998,-2.499926 q -0.07516,0 -0.126579,-0.04747 -0.04747,-0.05142 -0.04747,-0.174046 0,-0.126578 0.04747,-0.174045 0.05142,-0.04747 0.126579,-0.04747 0.0712,0 0.122623,0.04747 0.05142,0.04747 0.05142,0.174045 0,0.122623 -0.05142,0.174046 -0.05142,0.04747 -0.122623,0.04747 z m -0.541915,2.499926 v -0.03956 h 0.05142 q 0.174045,0 0.249201,-0.0712 0.07516,-0.0712 0.07516,-0.233379 v -1.427964 q 0,-0.166135 -0.07516,-0.237335 -0.07516,-0.0712 -0.249201,-0.0712 h -0.01187 v -0.03956 h 0.708049 v 1.756277 q 0,0.174046 0.07516,0.249202 0.07516,0.07516 0.249202,0.07516 h 0.05142 v 0.03956 z m 2.310059,0.03956 q -0.427203,0 -0.672449,-0.272935 -0.245246,-0.272935 -0.245246,-0.830672 0,-0.553781 0.233379,-0.82276 0.237335,-0.272935 0.696182,-0.272935 0.427203,0 0.672449,0.272935 0.245246,0.268979 0.245246,0.82276 0,0.557737 -0.237335,0.830672 -0.233379,0.272935 -0.692226,0.272935 z m 0.0079,-0.03956 q 0.292713,0 0.415336,-0.245245 0.122623,-0.245246 0.122623,-0.818806 0,-0.569603 -0.126579,-0.810893 -0.122623,-0.245246 -0.415336,-0.245246 -0.288757,0 -0.415336,0.245246 -0.122623,0.24129 -0.122623,0.810893 0,0.57356 0.122623,0.818806 0.126579,0.245245 0.419292,0.245245 z m 1.985699,0.03956 q -0.296668,0 -0.482581,-0.1068 -0.185912,-0.106801 -0.185912,-0.312491 0,-0.106801 0.04351,-0.166135 0.04351,-0.05933 0.09889,-0.08307 0.05933,-0.02373 0.106801,-0.02373 0,0.320402 0.09098,0.486536 0.09493,0.166134 0.336224,0.166134 0.209646,0 0.332269,-0.1068 0.122623,-0.110756 0.122623,-0.324358 0,-0.138445 -0.04747,-0.217557 -0.04747,-0.08307 -0.158223,-0.146356 -0.106801,-0.06329 -0.300624,-0.146357 -0.225468,-0.09889 -0.356003,-0.189867 -0.130534,-0.09493 -0.185912,-0.205691 -0.05538,-0.110756 -0.05538,-0.261068 0,-0.268979 0.189868,-0.41138 0.189868,-0.146357 0.526092,-0.146357 0.284802,0 0.443025,0.106801 0.162179,0.106801 0.162179,0.257113 0,0.1068 -0.07516,0.174045 -0.0712,0.06329 -0.209646,0.06329 0,-0.30458 -0.08307,-0.431159 -0.08307,-0.130534 -0.257113,-0.130534 -0.403469,0 -0.403469,0.379736 0,0.138445 0.05538,0.221512 0.05538,0.08307 0.17009,0.142401 0.118667,0.05933 0.292713,0.13449 0.225468,0.09098 0.356002,0.185912 0.130534,0.09098 0.181957,0.20569 0.05538,0.110757 0.05538,0.265024 0,0.308535 -0.20569,0.466759 -0.20569,0.154267 -0.557737,0.154267 z"
         id="text4"
         style="font-size:3.95558px;font-family:'Noto Serif Display';-inkscape-font-specification:'Noto Serif Display, Normal';stroke-width:0.0824074"
         aria-label="Servicios Inmobiliarios" />
    </g>
  </g>
</svg>
